<?xml version="1.0" standalone="no"?><!DOCTYPE svg PUBLIC "-//W3C//DTD SVG 1.1//EN" "http://www.w3.org/Graphics/SVG/1.1/DTD/svg11.dtd"><svg t="1492068165585" class="icon" style="" viewBox="0 0 1024 1024" version="1.1" xmlns="http://www.w3.org/2000/svg" p-id="2402" xmlns:xlink="http://www.w3.org/1999/xlink" width="200" height="200"><defs><style type="text/css"></style></defs><path d="M848.576 144l-92.032 0L756.544 82.624l-82.624 0c-26.56-36.544-75.456-61.312-132.096-61.312-56.64 0-105.536 24.832-132.096 61.312L327.232 82.624 327.232 144 235.2 144c-67.776 0-122.688 54.912-122.688 122.688l0 613.376c0 67.776 54.912 122.688 122.688 122.688l613.376 0c67.776 0 122.688-54.912 122.688-122.688L971.264 266.624C971.264 198.912 916.352 144 848.576 144L848.576 144zM378.816 140.864l72.512 0c0-36.8 40.576-66.624 90.624-66.624 50.048 0 90.624 29.824 90.624 66.624l72.512 0 0 133.312L378.816 274.176 378.816 140.864 378.816 140.864zM920.192 888.576c0 34.816-28.224 63.04-63.04 63.04L226.688 951.616c-34.816 0-63.04-28.224-63.04-63.04L163.648 258.112c0-34.816 28.224-63.04 63.04-63.04l97.408 0 0 126.08 432.704 0 0.704-126.08 99.648 0c34.816 0 63.04 28.224 63.04 63.04L920.192 888.576 920.192 888.576zM746.624 458.752 323.52 458.752c-14.016 0-25.344 11.328-25.344 25.344 0 14.016 11.328 25.344 25.344 25.344l423.104 0c14.016 0 25.344-11.328 25.344-25.344C771.904 470.08 760.576 458.752 746.624 458.752L746.624 458.752z" p-id="2403" fill="#ffffff"></path><path d="M746.624 608 323.52 608c-14.016 0-25.344 11.328-25.344 25.344 0 14.016 11.328 25.344 25.344 25.344l423.104 0c14.016 0 25.344-11.328 25.344-25.344C771.904 619.328 760.576 608 746.624 608L746.624 608z" p-id="2404" fill="#ffffff"></path><path d="M746.624 758.592 323.52 758.592c-14.016 0-25.344 11.328-25.344 25.344 0 14.016 11.328 25.344 25.344 25.344l423.104 0c14.016 0 25.344-11.328 25.344-25.344C771.904 769.92 760.576 758.592 746.624 758.592L746.624 758.592z" p-id="2405" fill="#ffffff"></path></svg>