<?xml version="1.0" encoding="UTF-8"?>
<svg width="1167px" height="438px" viewBox="0 0 1167 438" version="1.1" xmlns="http://www.w3.org/2000/svg" xmlns:xlink="http://www.w3.org/1999/xlink">
    <!-- Generator: Sketch 51.1 (57501) - http://www.bohemiancoding.com/sketch -->
    <title>系统架构图</title>
    <desc>Created with Sketch.</desc>
    <defs></defs>
    <g id="首页" stroke="none" stroke-width="1" fill="none" fill-rule="evenodd">
        <g id="解决方案" transform="translate(-377.000000, -741.000000)">
            <g id="content" transform="translate(-4.000000, 656.000000)">
                <g id="系统架构图" transform="translate(381.000000, 49.000000)">
                    <g transform="translate(0.000000, 37.000000)" id="Group-6">
                        <g>
                            <path d="M36.3428369,107.452273 L84.8965573,107.452273 C89.3148353,107.452273 92.8965573,111.033995 92.8965573,115.452273 L92.8965573,291.582376 C92.8965573,296.000654 89.3148353,299.582376 84.8965573,299.582376 L36.3428369,299.582376" id="Path-4" stroke="#CCCCCC" stroke-width="2" stroke-dasharray="2,2"></path>
                            <path d="M32,204 L335.679609,204 M559.82611,204.5 L736.771997,204.317647 M951.980603,204.095862 L1045,204" id="Path-5" stroke="#CCCCCC" stroke-width="2" stroke-dasharray="2,2"></path>
                            <g id="Group-39" transform="translate(139.000000, 154.000000)">
                                <circle id="Oval-2-Copy-7" stroke="#CCCCCC" fill="#FFFFFF" cx="50" cy="50" r="50"></circle>
                                <g id="电气火灾-" transform="translate(32.000000, 31.000000)" fill="#048EF6" fill-rule="nonzero">
                                    <path d="M6.61312985,0.0115443428 L28.6645922,0.0115443428 C30.0286002,0.0115443428 31.1652735,2.17122363 31.1652735,2.17122363 L4.22611589,2.17122363 C4.22611589,2.05755631 5.24912188,0.0115443428 6.61312985,0.0115443428 Z M17.4115264,8.87759624 C10.9324885,8.87759624 5.59012386,14.2199608 5.59012386,20.6989987 C5.59012386,27.291704 10.8188211,32.5204012 17.4115264,32.5204012 C23.8905643,32.5204012 29.2329289,27.1780366 29.2329289,20.6989987 C29.2329289,14.1062935 23.8905643,8.87759624 17.4115264,8.87759624 Z M14.910845,31.3837279 L18.2071977,22.6313434 L10.8188211,22.0630067 L20.4805443,9.90060222 L17.297859,18.6529868 L24.0042316,20.0169947 L14.910845,31.3837279 Z" id="Shape"></path>
                                    <path d="M28.4372575,3.19422962 L6.84046451,3.19422962 C3.08944255,3.19422962 0.0204245942,6.49058224 0.0204245942,10.4689389 L0.0204245942,31.1563933 C0.0204245942,35.1347499 3.08944255,38.4311025 6.84046451,38.4311025 L28.4372575,38.4311025 C32.1882795,38.4311025 35.2572975,35.1347499 35.2572975,31.1563933 L35.2572975,10.4689389 C35.2572975,6.49058224 32.1882795,3.19422966 28.4372575,3.19422962 Z M17.4115264,33.4297399 C10.4778191,33.4297399 4.79445254,27.7463733 4.79445254,20.6989987 C4.79445254,13.6516241 10.4778191,7.96825756 17.4115264,7.96825756 C24.3452336,7.96825756 30.0286002,13.6516241 30.0286002,20.6989987 C30.0286002,27.632706 24.3452336,33.4297399 17.4115264,33.4297399 Z" id="Shape"></path>
                                </g>
                            </g>
                            <path d="M740,58 L740,350.539055 C740,354.957333 743.581722,358.539055 748,358.539055 L938.904666,358.539055 C943.322944,358.539055 946.904666,354.957333 946.904666,350.539055 L946.904666,58 C946.904666,53.581722 943.322944,50 938.904666,50 L748,50 C743.581722,50 740,53.581722 740,58 Z" id="Path-3" stroke="#CCCCCC" stroke-width="2" stroke-dasharray="2,2"></path>
                            <path d="M337.904666,96 L337.904666,293 C337.904666,297.418278 341.486388,301 345.904666,301 L549.904666,301 C554.322944,301 557.904666,297.418278 557.904666,293 L557.904666,96 C557.904666,91.581722 554.322944,88 549.904666,88 L345.904666,88 C341.486388,88 337.904666,91.581722 337.904666,96 Z" id="Path-3-Copy" stroke="#CCCCCC" stroke-width="2" stroke-dasharray="2,2"></path>
                            <g id="Group-23" transform="translate(133.000000, 43.000000)">
                                <g id="Group-41" transform="translate(468.000000, 111.000000)">
                                    <text id="TMC云服务器" font-family="PingFang-SC-Bold, PingFang SC" font-size="16" font-weight="bold" fill="#666666">
                                        <tspan x="0.04" y="123">TMC云服务器</tspan>
                                    </text>
                                    <g id="Group-40" transform="translate(1.000000, 0.000000)">
                                        <circle id="Oval-2-Copy-2" stroke="#CCCCCC" fill="#FFFFFF" cx="50" cy="50" r="50"></circle>
                                        <g id="云" transform="translate(26.000000, 35.000000)">
                                            <g id="Group-38">
                                                <path d="M40.1544316,30 L8.34710354,30 C3.58821954,30 0,26.3025083 0,21.3976181 C0,17.2448786 2.54536364,13.923652 6.28889135,13.0354907 C7.23233427,8.58931755 11.2711885,5.33102764 16.0231836,5.33102764 C17.4284067,5.33102764 18.812291,5.61920303 20.0800162,6.17143074 C22.4699595,2.33727795 26.6999667,0 31.3803284,0 C38.6742707,0 44.6113242,5.76930794 44.6113242,12.8647863 C44.6113242,13.2267945 44.5957542,13.5888026 44.5654542,13.9432757 C47.2828163,15.4705618 49,18.3101409 49,21.3976181 C49.000056,26.1418326 45.0328352,30 40.1544316,30 Z" id="Shape" fill="#048EF6" fill-rule="nonzero"></path>
                                                <text id="TMC" font-family="PingFang-SC-Bold, PingFang SC" font-size="14" font-weight="bold" fill="#FFFFFF">
                                                    <tspan x="9.285" y="24">TMC</tspan>
                                                </text>
                                            </g>
                                        </g>
                                    </g>
                                </g>
                                <text id="电气火灾探测器" font-family="PingFang-SC-Bold, PingFang SC" font-size="16" font-weight="bold" fill="#666666">
                                    <tspan x="0" y="234">电气火灾探测器</tspan>
                                </text>
                                <text id="数据传输" font-family="PingFang-SC-Bold, PingFang SC" font-size="14" font-weight="bold" fill="#666666">
                                    <tspan x="129" y="148">数据传输</tspan>
                                </text>
                                <text id="物联网网关" font-family="PingFang-SC-Bold, PingFang SC" font-size="16" font-weight="bold" fill="#666666">
                                    <tspan x="273" y="118">物联网网关</tspan>
                                </text>
                                <text id="消防报警主机" font-family="PingFang-SC-Bold, PingFang SC" font-size="16" font-weight="bold" fill="#666666">
                                    <tspan x="265" y="330">消防报警主机</tspan>
                                </text>
                                <text id="LoRa基站" font-family="PingFang-SC-Bold, PingFang SC" font-size="14" font-weight="bold" fill="#888888">
                                    <tspan x="393.857" y="15">LoRa基站</tspan>
                                </text>
                                <text id="3G/4G" font-family="PingFang-SC-Bold, PingFang SC" font-size="14" font-weight="bold" fill="#888888">
                                    <tspan x="402.544" y="297">3G/4G</tspan>
                                </text>
                                <g id="电话" transform="translate(949.000000, 246.000000)"></g>
                            </g>
                            <g id="Group-37" transform="translate(1014.000000, 227.000000)" stroke="#CCCCCC" stroke-dasharray="2,2" stroke-width="2">
                                <path d="M0,93.2788895 L54.7593801,3.83731437 C57.0663775,0.0691658133 61.9912564,-1.11533125 65.7594049,1.19166613 C66.7259476,1.78341865 67.555732,2.57377753 68.1937972,3.51039307 L129.348183,93.2788895" id="Path-6"></path>
                                <path d="M65.25,12 L65.25,94.4489329" id="Path-7"></path>
                            </g>
                            <g id="Group-36" transform="translate(793.000000, 0.000000)">
                                <g id="Group-46">
                                    <circle id="Oval-2-Copy-3" stroke="#CCCCCC" fill="#FFFFFF" cx="50" cy="50" r="50"></circle>
                                    <path d="M52.6021739,47.6289606 C52.6036495,47.5922498 52.6044018,47.5553503 52.6044168,47.5182764 C52.5824992,46.0210579 51.3787527,44.8157475 49.8964619,44.8141321 L49.8963756,44.8141321 L49.8559056,44.8141321 C48.4133082,44.8571368 47.2600414,46.0508774 47.2600414,47.5171412 C47.2600414,49.0105613 48.4564101,50.2211982 49.9322291,50.2211982 C50.4867934,50.2211982 51.0019125,50.0502415 51.4289208,49.7575649 C54.4203043,50.5781627 59.1565503,50.4628095 61.1554175,48.1497753 C57.7992891,48.9889188 54.7027159,48.474372 52.6021739,47.6289606 Z M44.5875607,53.465106 C44.2520489,53.9169665 44.0534161,54.4785348 44.0534161,55.0870337 C44.0534161,56.5804538 45.2497848,57.7910906 46.7256039,57.7910906 C47.0596499,57.7910906 47.3793839,57.7290616 47.6741696,57.6157645 C50.6028575,58.2527221 55.9250043,57.1370895 57.9487923,54.546851 C55.3946509,55.5923645 52.5274141,55.9480734 49.3470819,55.6139776 C49.3802809,55.4438985 49.3977188,55.2680879 49.3977916,55.0881688 C49.3889497,54.4841722 49.1877821,53.9276812 48.8535827,53.4785564 C48.9062606,53.4084917 48.9556365,53.3357467 49.0014756,53.2605592 C52.9537366,53.886268 58.7085495,53.1195584 60.0865424,50.3959186 C56.4915352,51.9800415 52.2992367,51.8286443 49.296249,51.1370781 C48.9748869,49.9848197 47.9298229,49.1411363 46.6898366,49.1397849 L46.6897503,49.1397849 L46.6492803,49.1397849 C45.2066829,49.1827896 44.0534161,50.3765303 44.0534161,51.8427941 C44.0534161,52.451482 44.2521585,53.0131935 44.5875607,53.465106 Z M64.3784807,65.9998862 L39.06007,65.9998862 C32.3983153,65.9998862 27,60.4402489 27,53.5840759 C27,46.7279028 32.4003414,41.1682655 39.06007,41.1682655 C39.3243057,41.1682655 39.5880994,41.1774436 39.8514511,41.1957997 C42.1656936,36.8810809 46.5522922,34.006675 51.589509,34 C59.6567553,34 64.6541857,39.5985493 64.5623086,46.1587864 C69.6047566,46.4232059 73.9333333,50.8935727 73.9333333,56.1498785 C73.9325965,61.5847016 69.657142,65.9912391 64.3799174,66 L64.3784807,65.9998862 Z" id="Combined-Shape" fill="#048EF6" fill-rule="nonzero"></path>
                                </g>
                                <text id="云平台" font-family="PingFang-SC-Bold, PingFang SC" font-size="16" font-weight="bold" fill="#666666">
                                    <tspan x="26" y="124">云平台</tspan>
                                </text>
                            </g>
                            <g id="Group-31" transform="translate(793.000000, 310.000000)">
                                <g id="Group-47">
                                    <circle id="Oval-2-Copy-5" stroke="#CCCCCC" fill="#FFFFFF" cx="50" cy="50" r="50"></circle>
                                    <path d="M40.0275084,67.6405826 C39.2984614,65.4518673 33.3873554,40.1950367 33,38.478706 C35.3619231,35.8207553 38.4639153,33.4131683 42.8177268,33.0305368 C47.1715383,32.6431814 48.7461537,36.0286044 50.320769,38.2157452 C51.8953844,40.4028859 55.8319228,41.3917444 58.1938459,41.3917444 C60.5557689,41.3917444 64.4923074,41.3917444 67.6415381,39.9336506 C66.0669227,44.3079321 61.3430766,49.2364782 58.9811536,50.8709289 C56.6192305,52.503805 53.636909,52.9982343 50.320769,50.8709289 C43.9530245,46.7816528 40.8730768,53.0580697 40.8730768,53.0580697 L44.0223076,67.6405826 L40.0275084,67.6405826 Z M59.7684613,53.4690443 L56.2696659,59.7675058 L59.7684613,59.7675058 L51.8953844,67.6405826 L54.5202682,61.3421211 L51.8953844,61.3421211 L54.5202682,53.4690443 L59.7684613,53.4690443 Z" id="Shape" fill="#048EF6" fill-rule="nonzero"></path>
                                </g>
                                <text id="应急指挥中心" font-family="PingFang-SC-Bold, PingFang SC" font-size="16" font-weight="bold" fill="#666666">
                                    <tspan x="2" y="125">应急指挥中心</tspan>
                                </text>
                            </g>
                            <g id="Group-29" transform="translate(991.000000, 312.000000)">
                                <circle id="Oval-2-Copy-13" fill="#D8D8D8" cx="19" cy="19" r="19"></circle>
                                <g id="短信" transform="translate(11.000000, 12.000000)" fill="#FFFFFF" fill-rule="nonzero">
                                    <path d="M11.7090909,6.74003796 C11.2,6.74003796 10.7636364,6.3028463 10.7636364,5.79278938 C10.7636364,5.28273245 11.1636364,4.8455408 11.7090909,4.8455408 C12.2181818,4.8455408 12.6545455,5.28273245 12.6545455,5.79278938 C12.6545455,6.3028463 12.2181818,6.74003796 11.7090909,6.74003796 Z M8,6.74003796 C7.49090909,6.74003796 7.05454545,6.3028463 7.05454545,5.79278938 C7.05454545,5.28273245 7.49090909,4.8455408 8,4.8455408 C8.50909091,4.8455408 8.94545455,5.28273245 8.94545455,5.79278938 C8.90909091,6.3028463 8.50909091,6.74003796 8,6.74003796 Z M4.29090909,6.74003796 C3.78181819,6.74003796 3.34545455,6.3028463 3.34545455,5.79278938 C3.34545455,5.28273245 3.74545455,4.8455408 4.29090909,4.8455408 C4.8,4.8455408 5.23636364,5.28273245 5.23636364,5.79278938 C5.2,6.3028463 4.8,6.74003796 4.29090909,6.74003796 Z M14.0727273,0 L1.92727272,0 C0.618181812,0 0,0.655787475 0,1.9309298 L0,9.6910816 C0,11.0026565 0.581818188,11.5855788 1.85454545,11.5855787 L3.70909091,11.5855787 L3.49090909,13.5529412 C3.49090909,13.8079696 3.63636364,14.0265655 3.81818181,14.1358634 C3.92727272,14.172296 4,14.2087286 4.10909091,14.2087287 C4.21818181,14.2087287 4.36363636,14.172296 4.47272727,14.0994307 L8.18181819,11.5855787 L14.1454545,11.5855787 C15.4181818,11.5855787 16,10.9662239 16,9.6910816 L16,1.9309298 C16,0.619354848 15.3454545,1.11232971e-16 14.0727273,0 Z" id="Shape"></path>
                                </g>
                                <text id="短信" font-family="PingFang-SC-Bold, PingFang SC" font-size="14" font-weight="bold" fill="#888888">
                                    <tspan x="5" y="59">短信</tspan>
                                </text>
                            </g>
                            <g id="Group-28" transform="translate(1060.000000, 312.000000)">
                                <circle id="Oval-2-Copy-14" fill="#D8D8D8" cx="19" cy="19" r="19"></circle>
                                <path d="M26.0264196,26.112408 L26.5250523,25.6137753 C27.1583159,24.9755254 27.1583159,23.9458488 26.5250523,23.3075989 L24.8022763,22.0036743 C24.7050429,21.9313726 24.6127958,21.8540845 24.5205488,21.7743033 C23.9521075,21.3006022 23.1193908,21.3379997 22.5933333,21.8590708 L21.8005073,22.6344447 C21.4564507,22.9785013 20.9204205,23.0433236 20.5065553,22.7865277 C18.8037246,21.7369058 16.1709438,19.0941524 15.1961168,17.518473 C14.9368278,17.1021147 14.9991569,16.5635913 15.3457067,16.2170416 L16.2158208,15.3918044 C16.7468646,14.8557742 16.7742894,14.0006191 16.2731635,13.434671 C16.1908891,13.3424239 16.1136011,13.2476837 16.036313,13.1504503 L14.8096765,11.622141 C14.4307156,11.1484399 13.8198905,10.9140825 13.2265176,11.0287681 C12.9073926,11.088604 12.6156925,11.2456733 12.3863214,11.4750444 L11.9649768,11.896389 C11.1646713,12.6942014 10.8305874,13.8485361 11.0823969,14.9505144 C12.166923,19.652621 18.4272569,26.0775037 23.0645412,27.0149332 C24.1390948,27.2318384 25.2510457,26.8877819 26.0264196,26.112408 Z" id="Shape" fill="#FFFFFF" fill-rule="nonzero"></path>
                                <text id="电话" font-family="PingFang-SC-Bold, PingFang SC" font-size="14" font-weight="bold" fill="#888888">
                                    <tspan x="5" y="59">电话</tspan>
                                </text>
                            </g>
                            <g id="Group-27" transform="translate(1129.000000, 312.000000)">
                                <circle id="Oval-2-Copy-15" fill="#D8D8D8" cx="19" cy="19" r="19"></circle>
                                <g id="APP" transform="translate(11.000000, 10.000000)" fill="#FFFFFF" fill-rule="nonzero">
                                    <path d="M7.81936343,7.56725699 L7.81936343,9.13158211 L8.26701,9.13158211 C8.87397828,9.13158211 9.17716434,8.86763564 9.17716434,8.34004078 C9.17716434,7.82466705 8.87708677,7.56727827 8.2763994,7.56727827 L7.81936343,7.56727827 L7.81936343,7.56725699 Z M13.8396508,5.537933 L13.8396508,1.16924324 C13.8396508,0.525611589 13.3180387,0.00425504291 12.6746626,0.00425504291 L3.35465055,0.00425502211 C2.71129569,0.00425502211 2.18966236,0.525590283 2.18966236,1.16924321 L2.18966236,5.53793298 L0.016516619,5.537933 L0.016516619,12.8190826 L2.18966236,12.8190826 L2.18966236,17.4790141 C2.18966236,18.1223903 2.71129569,18.6440023 3.35465055,18.6440023 L12.6746626,18.6440023 C13.3180388,18.6440023 13.8396508,18.1223903 13.8396508,17.4790141 L13.8396508,12.8190826 L15.9916544,12.8190826 L15.9916544,5.537933 L13.8396508,5.537933 Z M12.6746839,1.46048495 L12.6746839,5.537933 L3.35479958,5.537933 L3.35465055,1.46048495 L12.6746839,1.46048495 Z M10.2630772,8.29935338 C10.2630772,8.79567153 10.0810378,9.19358194 9.71700163,9.49278656 C9.35294415,9.79226796 8.89786699,9.93564261 8.35123783,9.92312341 L7.81938474,9.92312341 L7.81938474,11.6125767 L6.78693397,11.6125767 L6.78693397,6.76632626 L8.45475541,6.76632626 C9.66011165,6.76632626 10.2630772,7.27744177 10.2630772,8.29935338 Z M2.78879549,10.5019022 L2.43214733,11.6125767 L1.31195572,11.6125767 L3.085871,6.76634755 L4.29991403,6.76634755 L6.03942279,11.6125767 L4.91312062,11.6125767 L4.55021287,10.5019022 L2.78879549,10.5019022 Z M8.01475237,18.0614976 C7.69308559,18.0614976 7.43197085,17.8006809 7.43197085,17.4790141 C7.43197085,17.1573473 7.69308559,16.8965307 8.01475237,16.8965307 C8.33641916,16.8965307 8.59723583,17.1573473 8.59723583,17.4790141 C8.59723583,17.8006809 8.33641916,18.0614976 8.01475237,18.0614976 Z M12.6746839,16.3140259 L3.35465055,16.3140259 L3.35479958,12.8190826 L12.6746839,12.8190826 L12.6746839,16.3140259 Z M13.7935767,9.49278656 C13.429796,9.79226796 12.9744421,9.93564261 12.4280684,9.92312341 L11.8962153,9.92312341 L11.8962153,11.6125767 L10.8637859,11.6125767 L10.8637859,6.76632626 L12.5310538,6.76632626 C13.7370061,6.76632626 14.3394181,7.27742046 14.3394181,8.29935338 C14.3393968,8.79567153 14.1576342,9.19358194 13.7935767,9.49278656 Z M12.3529958,7.56725699 L11.8962153,7.56725699 L11.8962153,9.13158211 L12.3433083,9.13158211 C12.9502766,9.13158211 13.2540376,8.86763564 13.2540376,8.34004078 C13.2540588,7.82466705 12.9536832,7.56725699 12.3529958,7.56725699 Z M3.68046912,7.60168479 L3.65202414,7.60168479 C3.63952622,7.74331356 3.61163481,7.88013052 3.5678389,8.01153954 L3.01392818,9.70412259 L4.30619491,9.70412259 L3.75556303,8.02405874 C3.72000678,7.91766683 3.69496838,7.77686841 3.68046912,7.60168479 Z" id="Shape"></path>
                                </g>
                                <text id="APP" font-family="PingFang-SC-Bold, PingFang SC" font-size="14" font-weight="bold" fill="#888888">
                                    <tspan x="5.154" y="59">APP</tspan>
                                </text>
                            </g>
                            <g id="Group-26" transform="translate(0.000000, 281.000000)">
                                <circle id="Oval-2-Copy-10" fill="#D8D8D8" cx="35" cy="19" r="19"></circle>
                                <text id="剩余电流式-探测器" font-family="PingFang-SC-Bold, PingFang SC" font-size="14" font-weight="bold" fill="#888888">
                                    <tspan x="0" y="60">剩余电流式</tspan>
                                    <tspan x="14" y="80">探测器</tspan>
                                </text>
                            </g>
                            <g id="Group-25" transform="translate(0.000000, 185.000000)">
                                <circle id="Oval-2-Copy-9" fill="#D8D8D8" cx="35" cy="19" r="19"></circle>
                                <g id="温度传感器" transform="translate(25.000000, 8.000000)" fill="#FFFFFF" fill-rule="nonzero">
                                    <path d="M12.6923112,2.2999977 L12.6457393,13.996175 C14.0549784,14.857923 15,16.3762967 15,18.1200079 C15,20.8153073 12.7614068,23 10.0000116,23 C7.23859324,23 5,20.8153073 5,18.1200079 C5,16.5933915 5.41390319,15.4606262 6.53846687,14.5666905 L6.53846687,2.2999977 C6.53846687,0.942608801 7.89739165,0 9.28861182,0 L9.79191644,0 C11.1823974,0 12.6923112,0.942608801 12.6923112,2.2999977 Z M9.7506116,1.16308808 L9.43287848,1.16308808 C8.55397236,1.16308808 8.07695686,2.20900625 8.07695686,3.06665593 L8.07695686,14.5666905 C8.31208029,15.0113789 7.63900537,15.2794491 7.63900537,15.2794491 C6.79313389,15.9502578 6.25078835,16.9729907 6.25078835,18.1207216 C6.25078835,20.1415054 7.92973328,21.7796278 10.0000347,21.7796278 C12.0703361,21.7796278 13.7485187,20.1415054 13.7485187,18.1207216 C13.7485187,16.7363945 12.9605387,15.5317708 11.7991518,14.9103259 C11.7991518,14.9103259 11.0404409,15.0316172 11.1538675,14.5666674 L11.1538675,10.7333303 L11.1538675,9.96664902 L11.1538675,8.43330954 L11.1538675,7.66665131 L11.1538675,6.13331184 L10.3846456,6.13331184 L10.3846456,5.36665361 L11.1538675,5.36665361 L11.1538675,3.83331414 L9.61540059,3.83331414 L9.61540061,3.06665591 L11.1538675,3.06665591 C11.1538675,2.20939766 10.6287785,1.16308808 9.7506116,1.16308808 Z M10.3846456,7.66667433 L9.61540061,7.66667433 L9.61540061,9.19999079 L10.3846456,9.19999079 L10.3846456,9.96664902 L9.61540061,9.96664902 L9.61540061,11.4999885 L10.3846456,11.4999885 L10.3846456,15.3333026 C12.2401064,15.318383 12.9830391,16.786518 12.9830391,18.1214814 C12.9830391,19.7297185 11.6474234,21.0331848 9.99927232,21.0331848 C8.35190666,21.0331848 7.01550549,19.7297185 7.01626782,18.1214814 C7.01552858,16.9954622 7.88840531,15.8177538 8.84620182,15.3333026 L8.84620182,6.89999309 C8.84620182,6.39201121 9.01296897,6.26323713 9.53353014,6.26323713 L9.72208167,6.26323713 C10.2426659,6.26323713 10.3846687,6.39201123 10.3846687,6.89999309 L10.3846687,7.66667433 L10.3846456,7.66667433 Z M8.01308217,17.9440573 C7.8943885,19.6024179 9.77089439,20.3286688 9.53350705,20.097299 C7.83506477,18.053376 9.54103802,16.3246305 9.54103802,16.3246305 C9.54103802,16.3246305 8.13177586,16.2856737 8.01308217,17.9440573 Z" id="Shape"></path>
                                    <g id="剩余电流" transform="translate(0.000000, 101.000000)">
                                        <path d="M18.6574036,0 L4.01907753,0 C3.66070672,0.00198276077 3.31792434,0.127155894 3.06614234,0.34798137 C2.81436035,0.568806845 2.67420455,0.86719479 2.67650916,1.17749999 L2.67650916,1.5375 L1.1173975,1.5375 C0.821853651,1.53550069 0.537620739,1.63575995 0.327821714,1.81601202 C0.118022689,1.9962641 2.51312294e-05,2.24158737 3.41508976e-05,2.4975 L3.41508976e-05,9.5325 C-0.00229577119,9.78971011 0.114677767,10.0369714 0.324731232,10.218852 C0.534784696,10.4007326 0.820346173,10.5020174 1.1173975,10.5 L2.67650916,10.5 L2.67650916,10.86 C2.69520302,11.4915254 3.28950442,11.9961578 4.01907753,12 L18.6574036,12 C19.3969175,11.9959083 19.9952465,11.4778285 19.999972,10.8375 L19.999972,1.17749999 C20.0022766,0.867194788 19.8621208,0.568806842 19.6103388,0.347981366 C19.3585568,0.12715589 19.0157745,0.00198275768 18.6574036,0 Z M14.3265379,9.8325 C14.3265379,10.1473023 14.0318107,10.4025 13.6682463,10.4025 L12.2563841,10.4025 C12.0817943,10.4025 11.9143553,10.3424466 11.7909017,10.2355509 C11.667448,10.1286551 11.5980925,9.9836734 11.5980925,9.8325 L11.5980925,2.1825 C11.5980925,2.0313266 11.667448,1.88634487 11.7909017,1.77944913 C11.9143553,1.6725534 12.0817943,1.6125 12.2563841,1.6125 L13.6769081,1.6125 C13.8514979,1.6125 14.0189369,1.6725534 14.1423905,1.77944914 C14.2658441,1.88634487 14.3351997,2.0313266 14.3351997,2.1825 L14.3265379,9.8325 Z M18.3715665,9.8325 C18.3715665,10.1473023 18.0768393,10.4025 17.7132749,10.4025 L16.3014127,10.4025 C15.9378483,10.4025 15.6431211,10.1473023 15.6431211,9.8325 L15.6431211,2.1825 C15.6431211,1.86769769 15.9378483,1.6125 16.3014127,1.6125 L17.7219366,1.6125 C17.8965264,1.6125 18.0639655,1.6725534 18.1874191,1.77944914 C18.3108727,1.88634487 18.3802282,2.0313266 18.3802282,2.1825 L18.3715665,9.8325 Z" id="Shape"></path>
                                    </g>
                                </g>
                                <text id="温度传感器" font-family="PingFang-SC-Bold, PingFang SC" font-size="14" font-weight="bold" fill="#888888">
                                    <tspan x="0" y="60">温度传感器</tspan>
                                </text>
                            </g>
                            <g id="Group-24" transform="translate(14.000000, 89.000000)">
                                <circle id="Oval-2-Copy-8" fill="#D8D8D8" cx="21" cy="19" r="19"></circle>
                                <g id="互感器-01" transform="translate(13.000000, 9.000000)" fill="#FFFFFF" fill-rule="nonzero">
                                    <path d="M3.00149143,5.68241761e-07 C3.71602241,0.000533402678 4.375992,0.382223501 4.73279604,1.0012919 C5.08960008,1.62036029 5.08903155,2.38275577 4.73130461,3.00129133 C4.37357768,3.6198269 3.71303956,4.00053228 2.99850858,3.99999944 C1.89393939,3.99917575 0.999176878,3.10307777 1.00000057,1.99850858 C1.00082426,0.893939392 1.89692224,-0.000823122428 3.00149143,5.68241761e-07 Z M4.87870964,5.00000909 L1.11980124,5.00000909 C0.501691296,5.00084309 0.000818147919,5.51142233 0,6.14151021 L0,13.2872467 C0,13.6611867 0.295544358,13.9654861 0.663860946,13.9654861 L2.05098874,13.9654861 L2.05098874,19.709326 C2.05098874,19.8698023 2.17871143,20 2.33465192,20 L3.6683144,20 C3.74341239,19.9996013 3.81525654,19.9687031 3.86793979,19.9141465 C3.92062304,19.8595899 3.94979882,19.785876 3.94900728,19.709326 L3.94900728,13.9654861 L5.33613507,13.9654861 C5.70301546,13.9646513 5.99999693,13.6612375 5.99999602,13.2872467 L5.99999602,6.14151021 C6.00078959,5.83825539 5.88286155,5.54720996 5.67236427,5.33291781 C5.461867,5.11862566 5.17619828,4.99879821 4.87870964,5.00000909 Z M12.1817386,2.16886111 C11.9655295,1.98606291 11.6599046,1.94813842 11.4046743,2.0724365 C11.149444,2.19673458 10.9936943,2.4593502 11.0086742,2.74014775 C11.0204095,2.92519223 11.1078861,3.09753691 11.2509542,3.21748275 C13.3640035,5.03287108 14.5800035,7.68776287 14.5800035,10.4987356 C14.5800035,13.3097084 13.3640035,15.9646002 11.2494207,17.7799885 C11.0223714,17.9685405 10.940384,18.2781251 11.0448581,18.5524178 C11.1493322,18.8267104 11.4175384,19.0060362 11.7140462,18.9998446 C11.8842737,19.0003822 12.0490794,18.9407192 12.1786717,18.8316408 C14.6145653,16.7333955 16.0088235,13.693545 15.9999481,10.500251 C16.0097987,7.30739611 14.6166592,4.2675451 12.1817386,2.16886111 Z M10.1192129,4.14474689 C9.90411835,3.97914649 9.60724156,3.95334809 9.36489545,4.0791972 C9.12254934,4.20504631 8.981556,4.45822844 9.00665347,4.72249335 C9.02462308,4.89719554 9.11568998,5.05728668 9.2588336,5.16581365 C10.7693313,6.34671906 11.6423414,8.12462993 11.6322936,9.99943497 C11.6419095,11.8741476 10.7689833,13.6518875 9.2588336,14.8330563 C9.11515258,14.9407989 9.02308653,15.1002279 9.00378321,15.2747222 C8.98447989,15.4492165 9.03959848,15.6237776 9.15647814,15.7583087 C9.29295209,15.9156159 9.49024596,15.9999897 9.68605641,15.9999897 C9.84360383,16.0008457 9.99643246,15.9481907 10.1177295,15.8512629 C11.9482605,14.4254876 13,12.2918299 13,9.9980049 C13,7.70417987 11.9512273,5.57338231 10.1192129,4.14474689 Z M8.00905106,6.11592069 C7.71388087,5.90857612 7.31210556,5.98685502 7.11019961,6.29104619 C6.91246342,6.59533377 6.9879438,7.00739396 7.27960931,7.21588252 C8.17664311,7.84422385 8.71169022,8.89342998 8.70629097,10.0135486 C8.71044814,11.1187018 8.19050408,12.155824 7.31461131,12.7895049 C7.02268265,12.9999658 6.95065367,13.4149949 7.1536021,13.7172358 C7.35999845,14.0169577 7.7609699,14.0898014 8.05385363,13.8807828 C9.27666522,12.9994985 10.0038355,11.5544949 9.99996503,10.0135486 C10.0058871,8.45260671 9.25936896,6.99114232 8.00905106,6.11592069 Z" id="Shape"></path>
                                </g>
                                <text id="互感器" font-family="PingFang-SC-Bold, PingFang SC" font-size="14" font-weight="bold" fill="#888888">
                                    <tspan x="0" y="60">互感器</tspan>
                                </text>
                            </g>
                            <g id="Group-30" transform="translate(1029.000000, 124.000000)">
                                <g id="Group-48" transform="translate(0.000000, 30.000000)">
                                    <circle id="Oval-2-Copy-6" stroke="#CCCCCC" fill="#FFFFFF" cx="50" cy="50" r="50"></circle>
                                    <g id="报警" transform="translate(32.000000, 32.000000)" fill="#048EF6" fill-rule="nonzero">
                                        <path d="M9,13.3333333 L4.71428571,10 L4,11.6666667 L8.28571429,15 L9,13.3333333 Z M19,3 L17,3 L17,12 L19,12 L19,3 Z M14,11.2222222 L10.6666667,5 L9,5.77777778 L12.3333333,12 L14,11.2222222 Z M28,5.79586563 L26.2950192,5 L23,11.2222222 L24.6475096,12 L28,5.79586563 Z M33.6545455,0 L2.34545455,0 C1.05454545,0 0,1.03636364 0,2.34545455 L0,33.6545455 C0,34.9454545 1.05454545,36 2.34545455,36 L33.6545455,36 C34.9454545,36 36,34.9454545 36,33.6545455 L36,2.34545455 C36,1.03636364 34.9454545,0 33.6545455,0 Z M33,32.2259001 C33,32.6579559 32.6579559,33 32.2259001,33 L2.77409988,33 C2.34204413,33 2,32.6579559 2,32.2259001 L2,2.77409988 C2,2.34204413 2.34204413,2 2.77409988,2 L32.2259001,2 C32.6579559,2 33,2.34204413 33,2.77409988 L33,32.2259001 Z M17.4818578,13 C12.1661829,13 6.94121916,16.360143 5.07256894,20.6496872 L5.07256894,29.1215371 L5,33 L29.9818578,33 L30,29.7292225 L30,20.3637176 C28.0406386,16.2171582 22.670537,13 17.4818578,13 Z M27.9817579,31 L17,31 L17.0547264,16.0671984 C17.5837479,16.1038883 23.8772803,14.8747757 28,21.533998 L27.9817579,31 Z M27,13.3333333 L27.8333333,15 L32,11.6666667 L31.1666667,10 L27,13.3333333 Z" id="Shape"></path>
                                    </g>
                                </g>
                                <text id="报警服务" font-family="PingFang-SC-Bold, PingFang SC" font-size="16" font-weight="bold" fill="#666666">
                                    <tspan x="18" y="17">报警服务</tspan>
                                </text>
                            </g>
                            <g id="Group-34" transform="translate(793.000000, 155.000000)">
                                <g id="Group-45">
                                    <circle id="Oval-2-Copy-4" stroke="#D3D3D3" fill="#FFFFFF" cx="50" cy="50" r="50"></circle>
                                    <g id="移动端" transform="translate(36.000000, 31.000000)" fill="#048EF6">
                                        <path d="M24.5003085,38 L3.50082758,38 C1.5671319,38 0,36.4536685 0,34.5457618 L3.89069843e-08,3.4542382 C3.89069843e-08,1.54606563 1.56717108,0 3.50082762,0 L24.5002693,0 C26.4333774,0 28,1.54606563 28,3.4542382 L28,34.5457239 C27.9999999,36.4536306 26.4334165,38 24.5003085,38 Z M25.2000195,2.71433996 L2.80025465,2.71433996 L2.80025465,35.28566 L25.2000195,35.28566 L25.2000195,2.71433996 Z" id="Shape" fill-rule="nonzero"></path>
                                        <polygon id="Path" fill-rule="nonzero" points="23 27 6 27 6 6 23 6"></polygon>
                                        <circle id="Oval" cx="14" cy="32" r="2"></circle>
                                    </g>
                                </g>
                                <text id="移动端" font-family="PingFang-SC-Bold, PingFang SC" font-size="16" font-weight="bold" fill="#666666">
                                    <tspan x="26" y="124">移动端</tspan>
                                </text>
                            </g>
                            <g id="Group-44" transform="translate(396.000000, 38.000000)">
                                <circle id="Oval-2" stroke="#CCCCCC" fill="#FFFFFF" cx="50" cy="50" r="50"></circle>
                                <g id="物联网网关1" transform="translate(31.000000, 31.000000)" fill="#048EF6" fill-rule="nonzero">
                                    <path d="M0,34.875 C0,36.6015328 1.41707308,38 3.16667393,38 L34.8333261,38 C36.5828834,38 38,36.6015758 38,34.875 L37.9999129,26.2812929 C37.9999129,24.5547601 36.5828399,23.1562929 34.833239,23.1562929 L25.3332608,23.1562929 L25.3332608,14.9531465 C25.3332608,13.8750137 24.4465781,13 23.3540678,13 C22.2615575,13 21.3749619,13.8750137 21.3749619,14.9531465 L21.3749619,23.15625 L3.16667393,23.15625 C1.41711663,23.15625 0,24.5546742 0,26.28125 L0,34.875 Z M4,30.000044 C4,28.8960239 4.89600422,28 6,28 C7.10399578,28 8,28.8960239 8,30.000044 C8,31.1040641 7.10399578,32 6,32 C4.89600422,32 4,31.1040641 4,30.000044 Z M11,30.000044 C11,28.8960239 11.8960042,28 13,28 C14.1039958,28 15,28.8960239 15,30.000044 C15,31.1040641 14.1039958,32 13,32 C11.8960042,32 11,31.1040641 11,30.000044 Z M23.499911,6 C18.8047187,6 15,9.61541423 15,14.0769019 C15,15.138448 15.9066738,16 17.0238159,16 C18.140958,16 19.0476318,15.138448 19.0476318,14.0769019 C19.0476318,11.7384218 21.0390474,9.84611156 23.5,9.84611156 C25.9609526,9.84611156 27.9523682,11.7384218 27.9523682,14.0769019 C27.9523682,15.138448 28.859042,16 29.9761841,16 C31.0933262,16 32,15.138448 32,14.0769019 C31.9998219,9.61541423 28.1950588,6 23.499911,6 Z M23.5,0 C15.4897235,0 9,6.70283376 9,14.9761629 C9,16.0933167 9.87785033,17 10.9594781,17 C12.0411059,17 12.9189562,16.0933167 12.9189562,14.9761629 C12.9189562,8.93714131 17.652936,4.04758514 23.5,4.04758514 C29.347064,4.04758514 34.0810438,8.93714135 34.0810438,14.9761629 C34.0810438,16.0933167 34.9588941,17 36.0405219,17 C37.1221497,17 38,16.0933167 38,14.9761629 C37.9999138,6.70283376 31.511009,0 23.5,0 Z" id="Shape"></path>
                                </g>
                            </g>
                            <g id="Group-7" transform="translate(396.000000, 250.000000)">
                                <circle id="Oval-2-Copy" stroke="#CCCCCC" fill="#FFFFFF" cx="50" cy="50" r="50"></circle>
                                <g id="消防报警" transform="translate(29.000000, 24.000000)" fill="#048EF6" fill-rule="nonzero">
                                    <path d="M21.4235167,12.7623511 C15.3748098,12.7623511 10.4689742,17.6994413 10.4689742,23.7866839 L10.4689742,37.3315634 L32.5361159,37.3315634 L32.5361159,23.7866839 C32.5361159,17.6994413 27.6302803,12.7623511 21.5815734,12.7623511 L21.4235167,12.7623511 Z M8.70603451,19.3696094 C8.9005658,18.3968741 8.27441822,17.4486102 7.30784094,17.2528396 L2.14060392,16.2066904 C1.17402664,16.0109198 0.23176575,16.6410565 0.037234504,17.6137917 C-0.00531919755,17.821798 -0.0113983303,18.0298043 0.0189971968,18.2378105 C0.12842104,18.9658325 0.675540256,19.5776157 1.43542803,19.7305615 L6.60266509,20.7767107 C7.57532146,20.9724813 8.51150326,20.3423446 8.70603451,19.3696094 Z M7.52060954,7.32359868 L10.8094039,11.4653708 C11.4233933,12.2423354 12.5480272,12.3646921 13.3200732,11.746791 C14.0921192,11.12889 14.2137013,9.99709117 13.5997119,9.22012651 L10.3109175,5.07835445 C9.69692819,4.30138983 8.57229427,4.17903318 7.80024824,4.79693416 C7.28352455,5.21294673 7.05859773,5.85531907 7.14978431,6.47322009 C7.19841715,6.78522951 7.3260783,7.07888543 7.52060954,7.32359868 Z M21.7274718,8.8897636 C22.7122864,8.91423491 23.5329653,8.12503461 23.5512026,7.13394592 L23.5390443,1.83590361 C23.5633607,0.844814864 22.7791565,0.0189075776 21.794342,0.000554082311 C20.8095274,-0.0239172294 19.9888486,0.765283066 19.9645321,1.75637181 L19.9766904,7.05441407 C19.9766904,7.15841723 19.9827694,7.26242034 19.9949277,7.36642349 C20.134747,8.21068427 20.846002,8.86529229 21.7274718,8.8897636 Z M29.988972,12.1383323 C30.7306225,12.7929403 31.8552564,12.7195263 32.5057204,11.9792687 L35.982967,7.99656019 C36.633431,7.2501847 36.5604817,6.11838586 35.8249103,5.46377785 C35.0832598,4.80916984 33.9586259,4.88258382 33.3081619,5.62284144 L29.8248362,9.60554991 C29.4600901,10.0215625 29.3263499,10.5538138 29.3992991,11.0615939 C29.4661692,11.4653708 29.6607005,11.8507942 29.988972,12.1383323 Z M42.9800138,18.6354696 C42.8341154,17.6566165 41.92225,16.9775372 40.9495936,17.130483 L35.7398029,17.9258011 C34.7671465,18.0726291 34.0923661,18.9903038 34.2443437,19.9691569 C34.3902421,20.94801 35.3021075,21.6270893 36.280843,21.4741435 L41.4906338,20.6727075 C42.457211,20.5319974 43.1259123,19.6143226 42.9800138,18.6354696 Z M36.4328205,41.4427463 C36.4328205,42.8559655 35.2960284,44 33.8917557,44 L8.55405696,44 C7.14978431,44 6.01299218,42.8559655 6.01299213,41.4427463 C6.01299213,40.0295272 7.14978427,38.8854927 8.55405696,38.8854927 L33.8856767,38.8854927 C35.2960284,38.8854927 36.4328206,40.0295272 36.4328205,41.4427463 Z" id="Shape"></path>
                                </g>
                            </g>
                            <circle id="Oval-2-Copy-11" fill="#D8D8D8" cx="558" cy="89" r="19"></circle>
                            <path d="M560.683043,97.1562715 L555.11877,97.1562715 L554.457022,99.2707827 C554.324206,99.6662359 553.92809,99.9314221 553.396828,99.798829 C553.000711,99.6662359 552.73508,99.2707827 552.867896,98.7404103 L555.780517,89.6170735 C555.780517,89.4844804 555.647702,89.4844804 555.514886,89.3518873 C554.853139,88.6912479 554.587508,87.8980154 554.587508,86.9721898 C554.587508,86.0463642 554.985954,85.2531317 555.647702,84.5924923 C556.176634,83.9318529 556.971197,83.6666667 557.898576,83.6666667 C558.825955,83.6666667 559.620518,84.064446 560.282266,84.5924923 C560.944014,85.2531317 561.209645,86.0463642 561.209645,86.9721898 C561.209645,87.8980154 560.813528,88.6912479 560.282266,89.3518873 C560.14945,89.4844804 560.016635,89.4844804 559.886149,89.6170735 L562.798771,98.7404103 C562.931587,99.1358634 562.665956,99.6662359 562.269839,99.798829 C561.873722,99.9314221 561.34246,99.6662359 561.209645,99.2707827 L560.683043,97.1562715 Z M554.71896,90.1028277 C554.322521,89.7053832 553.923751,89.1723401 553.790828,88.6416349 C553.524981,88.1109297 553.394389,87.5778866 553.394389,86.9139206 C553.394389,85.7192495 553.923751,84.5222404 554.71896,83.7250136 C555.514169,82.9277868 556.708148,82.3970816 557.899795,82.3970816 C559.093774,82.3970816 560.285422,82.9277868 561.08063,83.7250136 C561.875839,84.5222404 562.405201,85.7192495 562.405201,86.9139206 C562.405201,87.5778866 562.272278,88.1109297 562.008763,88.6416349 C561.742916,89.1723401 561.479401,89.7053832 561.08063,90.1028277 C560.814783,90.2360884 560.814783,90.6335329 561.08063,90.7667936 C561.213554,91.0333152 561.609992,91.0333152 561.742916,90.7667936 C562.272278,90.2360884 562.671048,89.7030453 562.936895,89.0390793 C563.202742,88.3751134 563.333333,87.7111474 563.333333,86.9139206 C563.333333,85.4527279 562.671048,83.9915352 561.742916,83.0610476 C560.814783,81.9972993 559.490213,81.3333333 557.899795,81.3333333 C556.442301,81.3333333 554.984807,81.9972993 554.056674,82.9277868 C552.995619,83.9915352 552.333333,85.3194671 552.333333,86.9139206 C552.333333,87.7111474 552.466257,88.3751134 552.732104,89.0390793 C552.997951,89.7030453 553.394389,90.3670113 553.926083,90.9000544 C554.059006,91.0333152 554.455445,91.0333152 554.588368,90.9000544 C554.984807,90.6335329 554.984807,90.3693492 554.71896,90.1028277 Z M563,89 L562.333333,89.2786713 C562.598592,89.4180069 562.866197,89.2786713 563,89 Z M558,94.0358409 L557.351598,94.0358409 C557.091324,94.0358409 556.833333,94.173924 556.833333,94.4500902 C556.833333,94.7262563 556.96347,95 557.221461,95 L558.778539,95 C559.038813,95 559.166667,94.7238338 559.166667,94.4500902 C559.166667,94.173924 558.906393,93.9001803 558.648402,94.0358409 L558,94.0358409 Z M553.865142,92.619544 C553.065377,91.9588076 552.265611,91.1654587 551.733216,90.1068847 C551.200821,89.1809232 550.933451,88.1246757 550.933451,86.9334891 C550.933451,84.9489535 551.733216,83.2319697 552.934037,82.040783 C554.266198,80.7193104 555.999414,80.0562475 557.866315,80.0562475 C559.866901,80.0562475 561.597772,80.8495964 562.798593,82.040783 C564.130753,83.3622557 564.799179,85.0815661 564.799179,86.9334891 C564.799179,88.1246757 564.531809,89.1809232 563.999414,90.1068847 C563.467018,91.1654587 562.667253,91.9588076 561.867488,92.619544 C561.600117,92.7521565 561.600117,93.1476677 561.733802,93.2802803 C561.867488,93.5455054 562.134858,93.5455054 562.399883,93.4128929 C563.467018,92.7521565 564.266784,91.6935825 564.932864,90.6350084 C565.73263,89.4461483 566,88.2549617 566,86.9334891 C566,84.6860549 565.066549,82.7015194 563.600704,81.3800467 C562.263852,79.7933489 560.263266,79 557.997655,79 C555.732043,79 553.731457,79.9259615 552.265611,81.3800467 C550.933451,82.7015194 550,84.6860549 550,86.9334891 C550,88.2549617 550.26737,89.4461483 550.933451,90.6350084 C551.465846,91.8261951 552.399296,92.74983 553.466432,93.4128929 C553.733802,93.5455054 553.998827,93.5455054 554.132512,93.2802803 C554.266198,93.0173817 554.132512,92.7521565 553.865142,92.619544 Z M557.559201,90.3333333 L555.666667,96.1666667 L560.666667,96.1666667 L558.638612,90.3333333 L557.559201,90.3333333 Z M559.295419,85.7045814 C559.025276,85.3017378 558.622433,85.1666667 558.082148,85.1666667 C557.544234,85.1666667 557.139021,85.3017378 556.871248,85.7045814 C556.468404,85.9747235 556.333333,86.3775671 556.333333,86.9154818 C556.333333,87.4533965 556.468404,87.8586098 556.871248,88.128752 C557.14139,88.3988942 557.544234,88.6666667 558.082148,88.6666667 C558.620063,88.6666667 559.025276,88.3965245 559.295419,88.128752 C559.565561,87.8586098 559.833333,87.3206951 559.833333,86.9154818 C559.833333,86.3775671 559.698262,85.9723539 559.295419,85.7045814 Z" id="Shape" fill="#FFFFFF" fill-rule="nonzero"></path>
                            <circle id="Oval-2-Copy-12" fill="#D8D8D8" cx="558" cy="299" r="19"></circle>
                            <path d="M560.683043,307.156271 L555.11877,307.156271 L554.457022,309.270783 C554.324206,309.666236 553.92809,309.931422 553.396828,309.798829 C553.000711,309.666236 552.73508,309.270783 552.867896,308.74041 L555.780517,299.617073 C555.780517,299.48448 555.647702,299.48448 555.514886,299.351887 C554.853139,298.691248 554.587508,297.898015 554.587508,296.97219 C554.587508,296.046364 554.985954,295.253132 555.647702,294.592492 C556.176634,293.931853 556.971197,293.666667 557.898576,293.666667 C558.825955,293.666667 559.620518,294.064446 560.282266,294.592492 C560.944014,295.253132 561.209645,296.046364 561.209645,296.97219 C561.209645,297.898015 560.813528,298.691248 560.282266,299.351887 C560.14945,299.48448 560.016635,299.48448 559.886149,299.617073 L562.798771,308.74041 C562.931587,309.135863 562.665956,309.666236 562.269839,309.798829 C561.873722,309.931422 561.34246,309.666236 561.209645,309.270783 L560.683043,307.156271 Z M554.71896,300.102828 C554.322521,299.705383 553.923751,299.17234 553.790828,298.641635 C553.524981,298.11093 553.394389,297.577887 553.394389,296.913921 C553.394389,295.719249 553.923751,294.52224 554.71896,293.725014 C555.514169,292.927787 556.708148,292.397082 557.899795,292.397082 C559.093774,292.397082 560.285422,292.927787 561.08063,293.725014 C561.875839,294.52224 562.405201,295.719249 562.405201,296.913921 C562.405201,297.577887 562.272278,298.11093 562.008763,298.641635 C561.742916,299.17234 561.479401,299.705383 561.08063,300.102828 C560.814783,300.236088 560.814783,300.633533 561.08063,300.766794 C561.213554,301.033315 561.609992,301.033315 561.742916,300.766794 C562.272278,300.236088 562.671048,299.703045 562.936895,299.039079 C563.202742,298.375113 563.333333,297.711147 563.333333,296.913921 C563.333333,295.452728 562.671048,293.991535 561.742916,293.061048 C560.814783,291.997299 559.490213,291.333333 557.899795,291.333333 C556.442301,291.333333 554.984807,291.997299 554.056674,292.927787 C552.995619,293.991535 552.333333,295.319467 552.333333,296.913921 C552.333333,297.711147 552.466257,298.375113 552.732104,299.039079 C552.997951,299.703045 553.394389,300.367011 553.926083,300.900054 C554.059006,301.033315 554.455445,301.033315 554.588368,300.900054 C554.984807,300.633533 554.984807,300.369349 554.71896,300.102828 Z M563,299 L562.333333,299.278671 C562.598592,299.418007 562.866197,299.278671 563,299 Z M558,304.035841 L557.351598,304.035841 C557.091324,304.035841 556.833333,304.173924 556.833333,304.45009 C556.833333,304.726256 556.96347,305 557.221461,305 L558.778539,305 C559.038813,305 559.166667,304.723834 559.166667,304.45009 C559.166667,304.173924 558.906393,303.90018 558.648402,304.035841 L558,304.035841 Z M553.865142,302.619544 C553.065377,301.958808 552.265611,301.165459 551.733216,300.106885 C551.200821,299.180923 550.933451,298.124676 550.933451,296.933489 C550.933451,294.948954 551.733216,293.23197 552.934037,292.040783 C554.266198,290.71931 555.999414,290.056248 557.866315,290.056248 C559.866901,290.056248 561.597772,290.849596 562.798593,292.040783 C564.130753,293.362256 564.799179,295.081566 564.799179,296.933489 C564.799179,298.124676 564.531809,299.180923 563.999414,300.106885 C563.467018,301.165459 562.667253,301.958808 561.867488,302.619544 C561.600117,302.752157 561.600117,303.147668 561.733802,303.28028 C561.867488,303.545505 562.134858,303.545505 562.399883,303.412893 C563.467018,302.752157 564.266784,301.693582 564.932864,300.635008 C565.73263,299.446148 566,298.254962 566,296.933489 C566,294.686055 565.066549,292.701519 563.600704,291.380047 C562.263852,289.793349 560.263266,289 557.997655,289 C555.732043,289 553.731457,289.925961 552.265611,291.380047 C550.933451,292.701519 550,294.686055 550,296.933489 C550,298.254962 550.26737,299.446148 550.933451,300.635008 C551.465846,301.826195 552.399296,302.74983 553.466432,303.412893 C553.733802,303.545505 553.998827,303.545505 554.132512,303.28028 C554.266198,303.017382 554.132512,302.752157 553.865142,302.619544 Z M557.559201,300.333333 L555.666667,306.166667 L560.666667,306.166667 L558.638612,300.333333 L557.559201,300.333333 Z M559.295419,295.704581 C559.025276,295.301738 558.622433,295.166667 558.082148,295.166667 C557.544234,295.166667 557.139021,295.301738 556.871248,295.704581 C556.468404,295.974724 556.333333,296.377567 556.333333,296.915482 C556.333333,297.453397 556.468404,297.85861 556.871248,298.128752 C557.14139,298.398894 557.544234,298.666667 558.082148,298.666667 C558.620063,298.666667 559.025276,298.396524 559.295419,298.128752 C559.565561,297.85861 559.833333,297.320695 559.833333,296.915482 C559.833333,296.377567 559.698262,295.972354 559.295419,295.704581 Z" id="Shape" fill="#FFFFFF" fill-rule="nonzero"></path>
                        </g>
                    </g>
                </g>
            </g>
        </g>
    </g>
</svg>